<svg xmlns="http://www.w3.org/2000/svg">
    <symbol id="menu" viewBox="0 0 512 512">
        <title>Icon menu</title>
        <path class="cls-1" d="M490.8,284.35H21.3C9.5,284.35,0,271.65,0,256s9.6-28.4,21.3-28.4H490.7c11.8,0,21.3,12.7,21.3,28.4S502.5,284.35,490.8,284.35Z"/>
        <path class="cls-1" d="M490.7,140.55H21.3c-11.8,0-21.3-12.7-21.3-28.4s9.6-28.4,21.3-28.4H490.6c11.8,0,21.3,12.7,21.3,28.4S502.4,140.55,490.7,140.55Z"/>
        <path class="cls-1" d="M490.8,428.25H21.3c-11.7,0-21.3-12.8-21.3-28.5s9.6-28.4,21.3-28.4H490.7c11.8,0,21.3,12.7,21.3,28.4S502.5,428.25,490.8,428.25Z"/>
    </symbol>
    <symbol id="ivan" viewBox="0 0 95.52 96">
        <title>Icon ivan</title>
        <defs><style>.cls-1{fill:#0780d3;}.cls-2{fill:#3c3c3b;opacity:0.25;}.cls-3{fill:#fff;}</style></defs>
        <path class="cls-1" d="M95.52,47.32V48A48,48,0,0,1,65.41,92.62c-.42.18-.85.34-1.28.5a24.64,24.64,0,0,1-2.4.76A47.18,47.18,0,0,1,47.81,96,48,48,0,1,1,95.06,41.3,49.71,49.71,0,0,1,95.52,47.32Z"/>
        <path class="cls-2" d="M95.52,47.32V48A48,48,0,0,1,65.41,92.62L37.9,75.3,48.53,55.84l-3.48-15L57.47,20.69,95.06,41.3A49.71,49.71,0,0,1,95.52,47.32Z"/>
        <polygon class="cls-3" points="36.63 43.21 57.47 20.69 48.05 42 58.9 51.81 37.9 75.3 47.02 52.61 36.63 43.21"/>
    </symbol>

    <symbol id="pets" viewBox="0 0 392.747 392.747">
        <title>Icon pets</title>
        <path d="M379.498,90.453l-40.104-16.18c-2.449-12.946-12.287-23.311-24.947-26.528l-2.169-24.992  c-0.31-3.565-2.702-6.608-6.093-7.75c-3.392-1.142-7.138-0.168-9.541,2.484l-10.492,11.572l-6.437-22.531  c-1.072-3.752-4.441-6.386-8.341-6.522c-3.898-0.121-7.443,2.258-8.774,5.928l-55.536,153.21  c-39.95,10.374-74.835,35.938-96.262,70.724c-19.626,31.862-25.722,68.366-17.165,102.786c5.001,20.117,14.496,33.373,24.209,42.065  h-7.639c-0.072,0-0.144,0.001-0.216,0.003c-36.135,0.881-69.622-19.663-85.259-52.307c-2.147-4.483-7.522-6.375-12.005-4.229  c-4.483,2.148-6.376,7.522-4.228,12.005c18.31,38.226,57.078,62.557,99.286,62.557c0.842,0,171.829,0,171.829,0c4.971,0,9-4.029,9-9  c0-24.226-19.323-35.268-36.377-39.321c7.974-15.546,8.663-29.218,7.759-38.162l2.352-0.314l53.943,82.713  c1.662,2.547,4.497,4.083,7.539,4.083h32.755c3.277,0,6.296-1.782,7.879-4.651c1.584-2.869,1.482-6.373-0.265-9.146  c-0.348-0.552-34.166-54.247-52.346-84.309V143.416c2.676,0.308,5.681,0.463,8.335,0.463c26.109,0,50.664-14.73,63.885-40.848  c0.011-0.021,0.35-0.729,0.404-0.865C386.337,97.557,384.108,92.312,379.498,90.453z"/>
    </symbol>
    <symbol id="home" viewBox="0 0 426.67 426.67">
        <title>Icon home</title>
        <path d="M205,37.33,24,200.24a12.4,12.4,0,0,0,8.3,21.62H51.6A12.4,12.4,0,0,1,64,234.26V380.12a12.41,12.41,0,0,0,12.4,12.41h81.86a12.41,12.41,0,0,0,12.41-12.41V276.93a12.4,12.4,0,0,1,12.4-12.4H243.6a12.4,12.4,0,0,1,12.4,12.4V380.12a12.41,12.41,0,0,0,12.4,12.41h81.86a12.41,12.41,0,0,0,12.41-12.41V234.26a12.4,12.4,0,0,1,12.4-12.4h19.28a12.4,12.4,0,0,0,8.29-21.62l-181-162.91A12.39,12.39,0,0,0,205,37.33Z"/>
    </symbol>
    <symbol id="blog" viewBox="0 0 512 512">
        <title>Icon blog</title>
       <path d="M467,0H45C20.186,0,0,20.186,0,45v76h512V45C512,20.186,491.814,0,467,0z M75,90c-8.284,0-15-6.716-15-15    c0-8.286,6.716-15,15-15s15,6.714,15,15C90,83.284,83.284,90,75,90z M135,90c-8.284,0-15-6.716-15-15c0-8.286,6.716-15,15-15    s15,6.714,15,15C150,83.284,143.284,90,135,90z M195,90c-8.284,0-15-6.716-15-15c0-8.286,6.716-15,15-15s15,6.714,15,15    C210,83.284,203.284,90,195,90z"/>

		<path d="M0,151v316c0,24.814,20.186,45,45,45h422c24.814,0,45-20.186,45-45V151H0z M60,197c0-8.291,6.709-15,15-15h150    c8.291,0,15,6.709,15,15v120c0,8.291-6.709,15-15,15H75c-8.291,0-15-6.709-15-15V197z M437,452H75c-8.291,0-15-6.709-15-15    c0-8.291,6.709-15,15-15h362c8.291,0,15,6.709,15,15C452,445.291,445.291,452,437,452z M437,392H75c-8.291,0-15-6.709-15-15    c0-8.291,6.709-15,15-15h362c8.291,0,15,6.709,15,15C452,385.291,445.291,392,437,392z M437,332H285c-8.291,0-15-6.709-15-15    c0-8.291,6.709-15,15-15h152c8.291,0,15,6.709,15,15C452,325.291,445.291,332,437,332z M437,272H285c-8.291,0-15-6.709-15-15    c0-8.291,6.709-15,15-15h152c8.291,0,15,6.709,15,15S445.291,272,437,272z"/>
    </symbol>
    <symbol id="contact" viewBox="0 0 405.333 405.333">
        <title>Icon contact</title>
        <path d="M373.333,266.88c-25.003,0-49.493-3.904-72.704-11.563c-11.328-3.904-24.192-0.896-31.637,6.699l-46.016,34.752    c-52.8-28.181-86.592-61.952-114.389-114.368l33.813-44.928c8.512-8.512,11.563-20.971,7.915-32.64    C142.592,81.472,138.667,56.96,138.667,32c0-17.643-14.357-32-32-32H32C14.357,0,0,14.357,0,32    c0,205.845,167.488,373.333,373.333,373.333c17.643,0,32-14.357,32-32V298.88C405.333,281.237,390.976,266.88,373.333,266.88z"/>
    </symbol>
    <symbol id="facebook" viewBox="0 0 155.139 155.139">
        <title>Icon facebook</title>
        <path id="f_1_" d="M89.584,155.139V84.378h23.742l3.562-27.585H89.584V39.184   c0-7.984,2.208-13.425,13.67-13.425l14.595-0.006V1.08C115.325,0.752,106.661,0,96.577,0C75.52,0,61.104,12.853,61.104,36.452   v20.341H37.29v27.585h23.814v70.761H89.584z"/>
    </symbol>
    <symbol id="twitter" viewBox="0 -47 512.00203 512">
        <title>Icon twitter</title>
        <path d="m191.011719 419.042969c-22.140625 0-44.929688-1.792969-67.855469-5.386719-40.378906-6.335938-81.253906-27.457031-92.820312-33.78125l-30.335938-16.585938 32.84375-10.800781c35.902344-11.804687 57.742188-19.128906 84.777344-30.597656-27.070313-13.109375-47.933594-36.691406-57.976563-67.175781l-7.640625-23.195313 6.265625.957031c-5.941406-5.988281-10.632812-12.066406-14.269531-17.59375-12.933594-19.644531-19.78125-43.648437-18.324219-64.21875l1.4375-20.246093 12.121094 4.695312c-5.113281-9.65625-8.808594-19.96875-10.980469-30.777343-5.292968-26.359376-.863281-54.363282 12.476563-78.851563l10.558593-19.382813 14.121094 16.960938c44.660156 53.648438 101.226563 85.472656 168.363282 94.789062-2.742188-18.902343-.6875-37.144531 6.113281-53.496093 7.917969-19.039063 22.003906-35.183594 40.722656-46.691407 20.789063-12.777343 46-18.96875 70.988281-17.433593 26.511719 1.628906 50.582032 11.5625 69.699219 28.746093 9.335937-2.425781 16.214844-5.015624 25.511719-8.515624 5.59375-2.105469 11.9375-4.496094 19.875-7.230469l29.25-10.078125-19.074219 54.476562c1.257813-.105468 2.554687-.195312 3.910156-.253906l31.234375-1.414062-18.460937 25.230468c-1.058594 1.445313-1.328125 1.855469-1.703125 2.421875-1.488282 2.242188-3.339844 5.03125-28.679688 38.867188-6.34375 8.472656-9.511718 19.507812-8.921875 31.078125 2.246094 43.96875-3.148437 83.75-16.042969 118.234375-12.195312 32.625-31.09375 60.617187-56.164062 83.199219-31.023438 27.9375-70.582031 47.066406-117.582031 56.847656-23.054688 4.796875-47.8125 7.203125-73.4375 7.203125zm0 0"/>
    </symbol>
    <symbol id="youtube" viewBox="0 0 512 512">
        <title>Icon youtube</title>
        <path d="M490.24,113.92c-13.888-24.704-28.96-29.248-59.648-30.976C399.936,80.864,322.848,80,256.064,80    c-66.912,0-144.032,0.864-174.656,2.912c-30.624,1.76-45.728,6.272-59.744,31.008C7.36,138.592,0,181.088,0,255.904    C0,255.968,0,256,0,256c0,0.064,0,0.096,0,0.096v0.064c0,74.496,7.36,117.312,21.664,141.728    c14.016,24.704,29.088,29.184,59.712,31.264C112.032,430.944,189.152,432,256.064,432c66.784,0,143.872-1.056,174.56-2.816    c30.688-2.08,45.76-6.56,59.648-31.264C504.704,373.504,512,330.688,512,256.192c0,0,0-0.096,0-0.16c0,0,0-0.064,0-0.096    C512,181.088,504.704,138.592,490.24,113.92z M192,352V160l160,96L192,352z"/>
    </symbol>
    <symbol id="instagram" viewBox="0 0 438.536 438.536">
        <title>Icon instagram</title>
        <path d="M421.981,16.562C410.941,5.519,397.711,0,382.298,0H56.248C40.83,0,27.604,5.521,16.561,16.562   C5.52,27.6,0.001,40.828,0.001,56.243V382.29c0,15.413,5.518,28.644,16.56,39.683c11.043,11.04,24.272,16.563,39.687,16.563   h326.046c15.41,0,28.644-5.523,39.684-16.563c11.043-11.039,16.557-24.27,16.557-39.683V56.243   C438.534,40.825,433.021,27.604,421.981,16.562z M157.462,158.025c17.224-16.652,37.924-24.982,62.097-24.982   c24.36,0,45.153,8.33,62.381,24.982c17.228,16.655,25.837,36.785,25.837,60.386c0,23.598-8.609,43.729-25.837,60.379   c-17.228,16.659-38.014,24.988-62.381,24.988c-24.172,0-44.87-8.336-62.097-24.988c-17.228-16.652-25.841-36.781-25.841-60.379   C131.621,194.81,140.234,174.681,157.462,158.025z M388.865,370.589c0,4.945-1.718,9.083-5.141,12.416   c-3.433,3.33-7.519,4.996-12.282,4.996h-305.2c-4.948,0-9.091-1.666-12.419-4.996c-3.333-3.326-4.998-7.471-4.998-12.416V185.575   H89.08c-3.805,11.993-5.708,24.462-5.708,37.402c0,36.553,13.322,67.715,39.969,93.511c26.65,25.786,58.721,38.685,96.217,38.685   c24.744,0,47.583-5.903,68.527-17.703c20.937-11.807,37.486-27.839,49.676-48.112c12.183-20.272,18.274-42.4,18.274-66.38   c0-12.94-1.91-25.406-5.715-37.402h38.547v185.014H388.865z M388.865,115.626c0,5.52-1.903,10.184-5.716,13.99   c-3.805,3.809-8.466,5.711-13.989,5.711h-49.676c-5.517,0-10.185-1.903-13.99-5.711c-3.806-3.806-5.708-8.47-5.708-13.99V68.522   c0-5.33,1.902-9.945,5.708-13.848c3.806-3.901,8.474-5.854,13.99-5.854h49.676c5.523,0,10.185,1.952,13.989,5.854   c3.812,3.903,5.716,8.518,5.716,13.848V115.626z"/>
    </symbol>
    <symbol id="github" viewBox="0 0 438.549 438.549">
        <title>Icon github</title>
        <path d="M409.132,114.573c-19.608-33.596-46.205-60.194-79.798-79.8C295.736,15.166,259.057,5.365,219.271,5.365   c-39.781,0-76.472,9.804-110.063,29.408c-33.596,19.605-60.192,46.204-79.8,79.8C9.803,148.168,0,184.854,0,224.63   c0,47.78,13.94,90.745,41.827,128.906c27.884,38.164,63.906,64.572,108.063,79.227c5.14,0.954,8.945,0.283,11.419-1.996   c2.475-2.282,3.711-5.14,3.711-8.562c0-0.571-0.049-5.708-0.144-15.417c-0.098-9.709-0.144-18.179-0.144-25.406l-6.567,1.136   c-4.187,0.767-9.469,1.092-15.846,1c-6.374-0.089-12.991-0.757-19.842-1.999c-6.854-1.231-13.229-4.086-19.13-8.559   c-5.898-4.473-10.085-10.328-12.56-17.556l-2.855-6.57c-1.903-4.374-4.899-9.233-8.992-14.559   c-4.093-5.331-8.232-8.945-12.419-10.848l-1.999-1.431c-1.332-0.951-2.568-2.098-3.711-3.429c-1.142-1.331-1.997-2.663-2.568-3.997   c-0.572-1.335-0.098-2.43,1.427-3.289c1.525-0.859,4.281-1.276,8.28-1.276l5.708,0.853c3.807,0.763,8.516,3.042,14.133,6.851   c5.614,3.806,10.229,8.754,13.846,14.842c4.38,7.806,9.657,13.754,15.846,17.847c6.184,4.093,12.419,6.136,18.699,6.136   c6.28,0,11.704-0.476,16.274-1.423c4.565-0.952,8.848-2.383,12.847-4.285c1.713-12.758,6.377-22.559,13.988-29.41   c-10.848-1.14-20.601-2.857-29.264-5.14c-8.658-2.286-17.605-5.996-26.835-11.14c-9.235-5.137-16.896-11.516-22.985-19.126   c-6.09-7.614-11.088-17.61-14.987-29.979c-3.901-12.374-5.852-26.648-5.852-42.826c0-23.035,7.52-42.637,22.557-58.817   c-7.044-17.318-6.379-36.732,1.997-58.24c5.52-1.715,13.706-0.428,24.554,3.853c10.85,4.283,18.794,7.952,23.84,10.994   c5.046,3.041,9.089,5.618,12.135,7.708c17.705-4.947,35.976-7.421,54.818-7.421s37.117,2.474,54.823,7.421l10.849-6.849   c7.419-4.57,16.18-8.758,26.262-12.565c10.088-3.805,17.802-4.853,23.134-3.138c8.562,21.509,9.325,40.922,2.279,58.24   c15.036,16.18,22.559,35.787,22.559,58.817c0,16.178-1.958,30.497-5.853,42.966c-3.9,12.471-8.941,22.457-15.125,29.979   c-6.191,7.521-13.901,13.85-23.131,18.986c-9.232,5.14-18.182,8.85-26.84,11.136c-8.662,2.286-18.415,4.004-29.263,5.146   c9.894,8.562,14.842,22.077,14.842,40.539v60.237c0,3.422,1.19,6.279,3.572,8.562c2.379,2.279,6.136,2.95,11.276,1.995   c44.163-14.653,80.185-41.062,108.068-79.226c27.88-38.161,41.825-81.126,41.825-128.906   C438.536,184.851,428.728,148.168,409.132,114.573z"/>
    </symbol>
    <symbol id="service" viewBox="0 0 438.549 438.549">
        <title>Icon services</title>
        <path style="fill:#E7ECED;" d="M370.759,503.172H141.241c-9.754,0-17.655-7.901-17.655-17.655l0,0 c0-9.754,7.901-17.655,17.655-17.655h229.517c9.754,0,17.655,7.901,17.655,17.655l0,0 C388.414,495.272,380.513,503.172,370.759,503.172z"/>
        <path style="fill:#AFB6BB;" d="M300.138,397.241v-17.655h-88.276v17.655c0,39.036-13.93,70.621-52.966,70.621h194.207
            C314.068,467.862,300.138,436.277,300.138,397.241z"/>
        <path style="fill:#E7ECED;" d="M485.508,397.241H26.492C11.864,397.241,0,385.377,0,370.75v-52.957h512v52.957
            C512,385.377,500.136,397.241,485.508,397.241z"/>
        <path style="fill:#AFB6BB;" d="M282.483,370.759h-52.966c-4.873,0-8.828-3.955-8.828-8.828s3.955-8.828,8.828-8.828h52.966
            c4.873,0,8.828,3.955,8.828,8.828S287.356,370.759,282.483,370.759z"/>
        <path style="fill:#495D72;" d="M441.379,8.828H70.621H26.492C11.864,8.828,0,20.692,0,35.319v291.302h70.621h132.414h105.931
            h132.414H512V35.319c0-14.627-11.864-26.492-26.492-26.492H441.379z"/>
        <rect x="238.345" y="44.138" style="fill:#28384C;" width="238.345" height="282.483"/>
        <rect x="35.31" y="44.138" style="fill:#EBBA16;" width="220.69" height="282.483"/>
        <g>
        <path style="fill:#FFFFFF;" d="M132.405,300.138c-1.324,0-2.675-0.3-3.946-0.927c-4.361-2.18-6.126-7.486-3.946-11.847
            l26.483-52.965c2.18-4.361,7.495-6.126,11.847-3.946c4.361,2.18,6.126,7.486,3.946,11.847l-26.483,52.965
            C138.761,298.355,135.645,300.138,132.405,300.138z"/>
        <path style="fill:#FFFFFF;" d="M70.621,273.655c-2.26,0-4.52-0.865-6.241-2.586c-3.452-3.452-3.452-9.031,0-12.482l26.483-26.483
            c3.443-3.452,9.039-3.452,12.482,0c3.452,3.452,3.452,9.031,0,12.482l-26.483,26.483C75.14,272.79,72.881,273.655,70.621,273.655z"
            />
        <path style="fill:#FFFFFF;" d="M97.103,300.138c-2.26,0-4.52-0.865-6.241-2.586L64.38,271.069c-3.452-3.452-3.452-9.031,0-12.482
            c3.443-3.452,9.039-3.452,12.482,0l26.483,26.483c3.452,3.452,3.452,9.031,0,12.482C101.623,299.273,99.363,300.138,97.103,300.138
            z"/>
        <path style="fill:#FFFFFF;" d="M220.69,273.655c-2.26,0-4.52-0.865-6.241-2.586l-26.483-26.483c-3.452-3.452-3.452-9.031,0-12.482
            c3.443-3.452,9.039-3.452,12.482,0l26.483,26.483c3.452,3.452,3.452,9.031,0,12.482C225.209,272.79,222.95,273.655,220.69,273.655z
            "/>
        <path style="fill:#FFFFFF;" d="M194.207,300.138c-2.26,0-4.52-0.865-6.241-2.586c-3.452-3.452-3.452-9.031,0-12.482l26.483-26.483
            c3.443-3.452,9.039-3.452,12.482,0c3.452,3.452,3.452,9.031,0,12.482l-26.483,26.483
            C198.727,299.273,196.467,300.138,194.207,300.138z"/>
        <path style="fill:#FFFFFF;" d="M150.069,150.069c-4.873,0-8.828-3.955-8.828-8.828V79.448c0-4.873,3.955-8.828,8.828-8.828
            c4.873,0,8.828,3.955,8.828,8.828v61.793C158.897,146.114,154.942,150.069,150.069,150.069z"/>
        <path style="fill:#FFFFFF;" d="M150.069,203.034c-4.873,0-8.828-3.955-8.828-8.828v-17.655c0-4.873,3.955-8.828,8.828-8.828
            c4.873,0,8.828,3.955,8.828,8.828v17.655C158.897,199.08,154.942,203.034,150.069,203.034z"/>
        </g>
        <path style="fill:#DD352E;" d="M379.586,88.276H291.31c-4.873,0-8.828-3.955-8.828-8.828c0-4.873,3.955-8.828,8.828-8.828h88.276
            c4.873,0,8.828,3.955,8.828,8.828C388.414,84.321,384.459,88.276,379.586,88.276z"/>
        <path style="fill:#366DB6;" d="M441.379,88.276h-26.483c-4.873,0-8.828-3.955-8.828-8.828c0-4.873,3.955-8.828,8.828-8.828h26.483
            c4.873,0,8.828,3.955,8.828,8.828C450.207,84.321,446.252,88.276,441.379,88.276z"/>
        <path style="fill:#75348B;" d="M441.379,123.586h-88.276c-4.873,0-8.828-3.955-8.828-8.828s3.955-8.828,8.828-8.828h88.276
            c4.873,0,8.828,3.955,8.828,8.828S446.252,123.586,441.379,123.586z"/>
        <path style="fill:#57ABC1;" d="M317.793,123.586H291.31c-4.873,0-8.828-3.955-8.828-8.828s3.955-8.828,8.828-8.828h26.483
            c4.873,0,8.828,3.955,8.828,8.828S322.666,123.586,317.793,123.586z"/>
        <path style="fill:#25AE88;" d="M379.586,158.897H291.31c-4.873,0-8.828-3.955-8.828-8.828c0-4.873,3.955-8.828,8.828-8.828h88.276
            c4.873,0,8.828,3.955,8.828,8.828C388.414,154.942,384.459,158.897,379.586,158.897z"/>
        <path style="fill:#F76363;" d="M441.379,158.897h-26.483c-4.873,0-8.828-3.955-8.828-8.828c0-4.873,3.955-8.828,8.828-8.828h26.483
            c4.873,0,8.828,3.955,8.828,8.828C450.207,154.942,446.252,158.897,441.379,158.897z"/>
        <path style="fill:#BF5A45;" d="M441.379,194.207h-88.276c-4.873,0-8.828-3.955-8.828-8.828c0-4.873,3.955-8.828,8.828-8.828h88.276
            c4.873,0,8.828,3.955,8.828,8.828C450.207,190.252,446.252,194.207,441.379,194.207z"/>
        <path style="fill:#F2ECBF;" d="M317.793,194.207H291.31c-4.873,0-8.828-3.955-8.828-8.828c0-4.873,3.955-8.828,8.828-8.828h26.483
            c4.873,0,8.828,3.955,8.828,8.828C326.621,190.252,322.666,194.207,317.793,194.207z"/>
        <path style="fill:#25AE88;" d="M441.379,300.138h-88.276c-4.873,0-8.828-3.955-8.828-8.828c0-4.873,3.955-8.828,8.828-8.828h88.276
            c4.873,0,8.828,3.955,8.828,8.828C450.207,296.183,446.252,300.138,441.379,300.138z"/>
        <path style="fill:#DD352E;" d="M317.793,300.138H291.31c-4.873,0-8.828-3.955-8.828-8.828c0-4.873,3.955-8.828,8.828-8.828h26.483
            c4.873,0,8.828,3.955,8.828,8.828C326.621,296.183,322.666,300.138,317.793,300.138z"/>
        <path style="fill:#75348B;" d="M379.586,229.517H291.31c-4.873,0-8.828-3.955-8.828-8.828c0-4.873,3.955-8.828,8.828-8.828h88.276
            c4.873,0,8.828,3.955,8.828,8.828C388.414,225.562,384.459,229.517,379.586,229.517z"/>
        <path style="fill:#EBBA16;" d="M441.379,229.517h-26.483c-4.873,0-8.828-3.955-8.828-8.828c0-4.873,3.955-8.828,8.828-8.828h26.483
            c4.873,0,8.828,3.955,8.828,8.828C450.207,225.562,446.252,229.517,441.379,229.517z"/>
        <path style="fill:#ED8A19;" d="M441.379,264.828h-88.276c-4.873,0-8.828-3.955-8.828-8.828s3.955-8.828,8.828-8.828h88.276
            c4.873,0,8.828,3.955,8.828,8.828S446.252,264.828,441.379,264.828z"/>
        <path style="fill:#C5411E;" d="M317.793,264.828H291.31c-4.873,0-8.828-3.955-8.828-8.828s3.955-8.828,8.828-8.828h26.483
            c4.873,0,8.828,3.955,8.828,8.828S322.666,264.828,317.793,264.828z"/>
    </symbol>
    <symbol id="service2" viewBox="0 0 438.549 438.549">
        <title>Icon service2</title>
        <path style="fill:#5C546A;" d="M459.133,75.984H52.852C32.531,75.984,16,92.477,16,112.75v291.234c0,4.422,3.578,8,8,8h464
			c4.422,0,8-3.578,8-8V112.75C496,92.477,479.461,75.984,459.133,75.984z M48,355.984v-240c0-4.418,3.582-8,8-8h400
			c4.418,0,8,3.582,8,8v240c0,4.418-3.582,8-8,8H56C51.582,363.984,48,360.402,48,355.984z"/>
		<path style="fill:#B9BBC1;" d="M504,395.984H8c-4.422,0-8,3.578-8,8l0,0c0,17.664,14.367,32.031,32.031,32.031h447.937
			c17.664,0,32.031-14.367,32.031-32.031l0,0C512,399.562,508.422,395.984,504,395.984z"/>
			<path style="fill:#FFD200;" d="M144,147.984H88c-4.422,0-8-3.578-8-8c0-4.422,3.578-8,8-8h56c4.422,0,8,3.578,8,8
				C152,144.406,148.422,147.984,144,147.984z"/>
			<path style="fill:#FFFFFF;" d="M288,147.984h-8c-4.422,0-8-3.578-8-8c0-4.422,3.578-8,8-8h8c4.422,0,8,3.578,8,8
				C296,144.406,292.422,147.984,288,147.984z"/>
			<path style="fill:#FFFFFF;" d="M328,147.984h-8c-4.422,0-8-3.578-8-8c0-4.422,3.578-8,8-8h8c4.422,0,8,3.578,8,8
				C336,144.406,332.422,147.984,328,147.984z"/>
			<path style="fill:#FFFFFF;" d="M368,147.984h-8c-4.422,0-8-3.578-8-8c0-4.422,3.578-8,8-8h8c4.422,0,8,3.578,8,8
				C376,144.406,372.422,147.984,368,147.984z"/>
			<path style="fill:#FFFFFF;" d="M408,147.984h-8c-4.422,0-8-3.578-8-8c0-4.422,3.578-8,8-8h8c4.422,0,8,3.578,8,8
				C416,144.406,412.422,147.984,408,147.984z"/>
		<path style="fill:#53DCFF;" d="M224,339.984H88c-4.418,0-8-3.582-8-8v-128c0-4.418,3.582-8,8-8h136c4.418,0,8,3.582,8,8v128
			C232,336.402,228.418,339.984,224,339.984z"/>
			<path style="fill:#FF4F19;" d="M416,211.984H264c-4.422,0-8-3.578-8-8c0-4.422,3.578-8,8-8h152c4.422,0,8,3.578,8,8
				C424,208.406,420.422,211.984,416,211.984z"/>
			<path style="fill:#B9BBC1;" d="M328,275.984h-64c-4.422,0-8-3.578-8-8s3.578-8,8-8h64c4.422,0,8,3.578,8,8
				S332.422,275.984,328,275.984z"/>
			<path style="fill:#B9BBC1;" d="M328,307.984h-64c-4.422,0-8-3.578-8-8s3.578-8,8-8h64c4.422,0,8,3.578,8,8
				S332.422,307.984,328,307.984z"/>
			<path style="fill:#B9BBC1;" d="M328,339.984h-64c-4.422,0-8-3.578-8-8s3.578-8,8-8h64c4.422,0,8,3.578,8,8
				S332.422,339.984,328,339.984z"/>
			<path style="fill:#B9BBC1;" d="M424,275.984h-64c-4.422,0-8-3.578-8-8s3.578-8,8-8h64c4.422,0,8,3.578,8,8
				S428.422,275.984,424,275.984z"/>
			<path style="fill:#B9BBC1;" d="M424,307.984h-64c-4.422,0-8-3.578-8-8s3.578-8,8-8h64c4.422,0,8,3.578,8,8
				S428.422,307.984,424,307.984z"/>
			<path style="fill:#B9BBC1;" d="M424,339.984h-64c-4.422,0-8-3.578-8-8s3.578-8,8-8h64c4.422,0,8,3.578,8,8
				S428.422,339.984,424,339.984z"/>
			<path style="fill:#E9001E;" d="M368,243.984H264c-4.422,0-8-3.578-8-8c0-4.422,3.578-8,8-8h104c4.422,0,8,3.578,8,8
				C376,240.406,372.422,243.984,368,243.984z"/>
		<path style="fill:#8B8996;" d="M224,411.984h64c8.836,0,16-7.164,16-16h-96C208,404.821,215.163,411.984,224,411.984z"/>
    </symbol>
    <symbol id="service3" viewBox="0 0 512 512">
        <title>Icon service3</title>
        <path d="m454.471 495.243h-396.942c-31.772 0-57.529-25.757-57.529-57.529v-363.421c0-31.772 25.757-57.529 57.529-57.529h396.942c31.772 0 57.529 25.757 57.529 57.529v363.421c0 31.772-25.757 57.529-57.529 57.529z" fill="#f6f9f9"/><path d="m79.118 495.235h-21.582c-31.781 0-57.536-25.754-57.536-57.525v-363.417c0-31.771 25.755-57.536 57.536-57.536h21.582c-31.781 0-57.536 25.765-57.536 57.536v363.417c0 31.771 25.755 57.525 57.536 57.525z" fill="#dae7ef"/>
        <path d="m289.934 109.26 27.425 183-27.425 172.073h-232.409c-14.701 0-26.62-11.919-26.62-26.62v-295.858c0-17.997 14.598-32.595 32.595-32.595z" fill="#30579d"/>
        <path d="m481.095 141.855v295.858c0 14.701-11.919 26.62-26.62 26.62h-164.54v-355.073h158.565c17.997 0 32.595 14.597 32.595 32.595z" fill="#9dc6fb"/><g fill="#e28086"><circle cx="49.747" cy="64.04" r="18.842"/><circle cx="109.649" cy="64.04" r="18.842"/><circle cx="169.551" cy="64.04" r="18.842"/></g><g><g><path d="m96.612 171.244h-27.639c-4.267 0-7.726-3.459-7.726-7.726s3.459-7.726 7.726-7.726h27.639c4.267 0 7.726 3.459 7.726 7.726s-3.459 7.726-7.726 7.726z" fill="#f6f9f9"/><path d="m256 171.244h-44.223c-4.267 0-7.726-3.459-7.726-7.726s3.459-7.726 7.726-7.726h44.223c4.267 0 7.726 3.459 7.726 7.726s-3.459 7.726-7.726 7.726z" fill="#e28086"/><path d="m189.665 171.244h-70.02c-4.267 0-7.726-3.459-7.726-7.726s3.459-7.726 7.726-7.726h70.02c4.267 0 7.726 3.459 7.726 7.726s-3.459 7.726-7.726 7.726z" fill="#c0e3a0"/></g><g><path d="m141.757 214.409h-72.784c-4.267 0-7.726-3.459-7.726-7.726s3.459-7.726 7.726-7.726h72.784c4.267 0 7.726 3.459 7.726 7.726s-3.459 7.726-7.726 7.726z" fill="#f6f9f9"/><path d="m256 214.409h-22.112c-4.267 0-7.726-3.459-7.726-7.726s3.459-7.726 7.726-7.726h22.112c4.267 0 7.726 3.459 7.726 7.726s-3.459 7.726-7.726 7.726z" fill="#e28086"/><path d="m211.777 214.409h-46.987c-4.267 0-7.726-3.459-7.726-7.726s3.459-7.726 7.726-7.726h46.987c4.267 0 7.726 3.459 7.726 7.726s-3.459 7.726-7.726 7.726z" fill="#c0e3a0"/></g><g><path d="m96.612 257.573h-27.639c-4.267 0-7.726-3.459-7.726-7.726s3.459-7.726 7.726-7.726h27.639c4.267 0 7.726 3.459 7.726 7.726.001 4.267-3.459 7.726-7.726 7.726z" fill="#f6f9f9"/><path d="m256 257.573h-44.223c-4.267 0-7.726-3.459-7.726-7.726s3.459-7.726 7.726-7.726h44.223c4.267 0 7.726 3.459 7.726 7.726s-3.459 7.726-7.726 7.726z" fill="#e28086"/><path d="m189.665 257.573h-70.02c-4.267 0-7.726-3.459-7.726-7.726s3.459-7.726 7.726-7.726h70.02c4.267 0 7.726 3.459 7.726 7.726s-3.459 7.726-7.726 7.726z" fill="#c0e3a0"/></g><g><path d="m85.556 300.738h-16.583c-4.267 0-7.726-3.459-7.726-7.726s3.459-7.726 7.726-7.726h16.583c4.267 0 7.726 3.459 7.726 7.726.001 4.267-3.459 7.726-7.726 7.726z" fill="#f6f9f9"/><path d="m256 300.738h-86.604c-4.267 0-7.726-3.459-7.726-7.726s3.459-7.726 7.726-7.726h86.604c4.267 0 7.726 3.459 7.726 7.726s-3.459 7.726-7.726 7.726z" fill="#e28086"/><path d="m147.285 300.738h-38.695c-4.267 0-7.726-3.459-7.726-7.726s3.459-7.726 7.726-7.726h38.695c4.267 0 7.726 3.459 7.726 7.726s-3.459 7.726-7.726 7.726z" fill="#c0e3a0"/></g><g><path d="m82.793 343.903h-13.82c-4.267 0-7.726-3.459-7.726-7.726s3.459-7.726 7.726-7.726h13.82c4.267 0 7.726 3.459 7.726 7.726s-3.459 7.726-7.726 7.726z" fill="#f6f9f9"/><path d="m256 343.903h-22.112c-4.267 0-7.726-3.459-7.726-7.726s3.459-7.726 7.726-7.726h22.112c4.267 0 7.726 3.459 7.726 7.726s-3.459 7.726-7.726 7.726z" fill="#e28086"/><path d="m211.777 343.903h-105.952c-4.267 0-7.726-3.459-7.726-7.726s3.459-7.726 7.726-7.726h105.951c4.267 0 7.726 3.459 7.726 7.726s-3.458 7.726-7.725 7.726z" fill="#c0e3a0"/></g></g>
        <g fill="#30579d">
        <path d="m352.845 324.544c-1.977 0-3.955-.755-5.463-2.263l-30.022-30.022c-1.449-1.449-2.263-3.414-2.263-5.463s.814-4.015 2.263-5.463l30.022-30.022c3.017-3.017 7.909-3.017 10.927 0s3.018 7.909 0 10.927l-24.559 24.559 24.559 24.558c3.018 3.017 3.018 7.909 0 10.927-1.51 1.508-3.487 2.262-5.464 2.262z"/>
        <path d="m416.569 324.544c-1.977 0-3.955-.754-5.463-2.263-3.018-3.017-3.018-7.909 0-10.927l24.559-24.558-24.559-24.559c-3.018-3.017-3.018-7.909 0-10.927 3.017-3.017 7.909-3.017 10.927 0l30.022 30.022c1.449 1.449 2.263 3.414 2.263 5.463s-.814 4.015-2.263 5.463l-30.022 30.022c-1.509 1.51-3.487 2.264-5.464 2.264z"/>
        <path d="m373.28 341.788c-.571 0-1.15-.063-1.73-.196-4.159-.952-6.76-5.096-5.808-9.255l21.629-94.528c.951-4.16 5.094-6.762 9.255-5.808 4.159.952 6.76 5.096 5.808 9.255l-21.629 94.528c-.82 3.579-4.003 6.004-7.525 6.004z"/></g>
    </symbol>

</svg>