<svg id="Capa_1" data-name="Capa 1" xmlns="http://www.w3.org/2000/svg" viewBox="0 0 95.52 96">
<defs><style>.cls-1{fill:#0780d3;}.cls-2{fill:#3c3c3b;opacity:0.25;}.cls-3{fill:#fff;}</style></defs>
<path class="cls-1" d="M95.52,47.32V48A48,48,0,0,1,65.41,92.62c-.42.18-.85.34-1.28.5a24.64,24.64,0,0,1-2.4.76A47.18,47.18,0,0,1,47.81,96,48,48,0,1,1,95.06,41.3,49.71,49.71,0,0,1,95.52,47.32Z"/>
<path class="cls-2" d="M95.52,47.32V48A48,48,0,0,1,65.41,92.62L37.9,75.3,48.53,55.84l-3.48-15L57.47,20.69,95.06,41.3A49.71,49.71,0,0,1,95.52,47.32Z"/>
<polygon class="cls-3" points="36.63 43.21 57.47 20.69 48.05 42 58.9 51.81 37.9 75.3 47.02 52.61 36.63 43.21"/>
</svg>